<svg viewBox="0 0 119.643 31.056" xmlns="http://www.w3.org/2000/svg"><g transform="translate(-1.434 -.472)"><g fill="#fff"><path d="m8.024 25.4a14.708 14.708 0 0 1 -6.59-1.635l.554-3.5a11.718 11.718 0 0 0 6.17 1.987c1.822 0 2.8-.671 2.8-1.757 0-1.191-.738-1.68-3.437-2.342-4.101-1.047-5.821-2.235-5.821-5.318 0-2.908 2.3-4.979 6.228-4.986a14.31 14.31 0 0 1 5.919 1.181l-.555 3.505a11.56 11.56 0 0 0 -5.363-1.535c-1.576 0-2.346.6-2.345 1.545 0 .911.633 1.4 3.157 2.062 4.382 1.114 6.1 2.3 6.105 5.49.006 3.332-2.373 5.303-6.822 5.303z"/><path d="m19.412 5.307a2.4 2.4 0 0 1 -2.527-2.378 2.506 2.506 0 0 1 5.015-.009 2.387 2.387 0 0 1 -2.488 2.387zm-2.1 19.764-.033-16.922 4.205-.007.028 16.922z"/><path d="m35 25.041-.016-11.071c0-1.472-.635-2.487-2.177-2.484a5.642 5.642 0 0 0 -3.85 2.144l.019 11.421-4.2.008-.033-16.923 3.573-.006.39 2.382c1.574-1.512 3.359-2.739 5.636-2.743 3.153 0 4.839 1.919 4.844 5.073l.021 12.192z"/><path d="m52.708 31.528-.014-8.409a6.724 6.724 0 0 1 -4.8 2.251c-3.573.006-6.381-2.617-6.39-8.328-.011-6.237 3.347-9.15 8.428-9.159a21.351 21.351 0 0 1 6.939 1.109l.037 21.9zm-.033-19.728a6.693 6.693 0 0 0 -2.664-.486c-2.663 0-4.307 1.62-4.3 5.473.005 3.294 1.374 4.833 3.266 4.83a5.163 5.163 0 0 0 3.711-2.179z"/><path d="m70.777 24.98-.39-2.381a8.266 8.266 0 0 1 -5.636 2.742c-3.189 0-4.838-1.919-4.843-5.107l-.021-12.157 4.2-.008.018 11.071c0 1.472.636 2.452 2.142 2.45a5.8 5.8 0 0 0 3.886-2.109l-.02-11.422 4.2-.007.028 16.922z"/><path d="m91.717 17.307-10.862.018c.216 3.293 1.97 4.727 4.563 4.722a9.853 9.853 0 0 0 5.812-2.111l.5 3.292a11.571 11.571 0 0 1 -6.759 2.079c-4.73.008-8.273-2.684-8.284-8.781-.009-5.5 3.279-8.834 7.694-8.841 5.079-.009 7.364 3.806 7.372 8.606-.003.35-.037.771-.036 1.016zm-7.44-6.715c-1.682 0-3.046 1.337-3.356 4.106l6.727-.012c-.285-2.627-1.339-4.097-3.371-4.094z"/></g><path d="m86.432 29.765c6.437-.527 12.262-4.531 14.6-13.049.175-.637 1.9-9.266 7.678-12.536 3.015-1.812 5.834-2.1 10.661-2.108h1.7c-2.371.409-5.507 2.546-7.248 4.871a22.478 22.478 0 0 0 -3.355 7.155c-.885 2.986-1.592 6.137-3.384 8.762-3.743 5.484-9.607 6.89-17.34 6.9z" fill="#ffc600"/></g></svg>